solid Figura_008
facet normal 0.0 0.0 -1.0
  outer loop
    vertex -79.99999999998927 80.00000000001066 0.0
    vertex -1.0656520110785548e-11 -1.0693312901821626e-11 0.0
    vertex -80.00000000001064 1.0670753169961244e-11 0.0
  endloop
endfacet
facet normal 0.0 0.0 -1.0
  outer loop
    vertex -1.0656520110785548e-11 -1.0693312901821626e-11 0.0
    vertex -79.99999999998927 80.00000000001066 0.0
    vertex 1.0713052667199462e-11 79.9999999999893 0.0
  endloop
endfacet
facet normal 0.0 0.0 1.0
  outer loop
    vertex -79.99999999998927 80.00000000001066 79.99999999999999
    vertex -1.0656520110785548e-11 -1.0693312901821626e-11 79.99999999999999
    vertex 1.0713052667199462e-11 79.9999999999893 79.99999999999999
  endloop
endfacet
facet normal 2.6711965972481266e-13 1.0 -0.0
  outer loop
    vertex -79.99999999998927 80.00000000001066 0.0
    vertex 1.0713052667199462e-11 79.9999999999893 79.99999999999999
    vertex 1.0713052667199462e-11 79.9999999999893 0.0
  endloop
endfacet
facet normal 2.6711965972481266e-13 1.0 -0.0
  outer loop
    vertex 1.0713052667199462e-11 79.9999999999893 79.99999999999999
    vertex -79.99999999998927 80.00000000001066 0.0
    vertex -79.99999999998927 80.00000000001066 79.99999999999999
  endloop
endfacet
facet normal 1.0 -2.6711965972481266e-13 0.0
  outer loop
    vertex 1.0713052667199462e-11 79.9999999999893 79.99999999999999
    vertex -1.0656520110785548e-11 -1.0693312901821626e-11 0.0
    vertex 1.0713052667199462e-11 79.9999999999893 0.0
  endloop
endfacet
facet normal 1.0 -2.6711965972481266e-13 0.0
  outer loop
    vertex -1.0656520110785548e-11 -1.0693312901821626e-11 0.0
    vertex 1.0713052667199462e-11 79.9999999999893 79.99999999999999
    vertex -1.0656520110785548e-11 -1.0693312901821626e-11 79.99999999999999
  endloop
endfacet
facet normal -2.6711965972481266e-13 -1.0 0.0
  outer loop
    vertex -80.00000000001064 1.0670753169961244e-11 0.0
    vertex -1.0656520110785548e-11 -1.0693312901821626e-11 0.0
    vertex -1.0656520110785548e-11 -1.0693312901821626e-11 79.99999999999999
  endloop
endfacet
facet normal -1.0 2.6711965972481266e-13 0.0
  outer loop
    vertex -79.99999999998927 80.00000000001066 79.99999999999999
    vertex -79.99999999998927 80.00000000001066 0.0
    vertex -80.00000000001064 1.0670753169961244e-11 0.0
  endloop
endfacet
facet normal -0.57735026918978 -0.5773502691894716 0.5773502691896258
  outer loop
    vertex -80.00000000001064 1.0670753169961244e-11 0.0
    vertex -1.0656520110785548e-11 -1.0693312901821626e-11 79.99999999999999
    vertex -79.99999999998927 80.00000000001066 79.99999999999999
  endloop
endfacet
endsolid Figura_008
