solid Untitled-5b144553
facet normal 0.0 0.0 -1.0
  outer loop
    vertex 0.0 80.0 0.0
    vertex -80.0 0.0 0.0
    vertex -80.0 80.0 0.0
  endloop
endfacet
facet normal 0.0 0.0 -1.0
  outer loop
    vertex -80.0 0.0 0.0
    vertex 0.0 80.0 0.0
    vertex 0.0 0.0 0.0
  endloop
endfacet
facet normal -0.0 -0.0 1.0
  outer loop
    vertex 0.0 0.0 80.0
    vertex -80.0 80.0 80.0
    vertex -80.0 0.0 80.0
  endloop
endfacet
facet normal -0.0 -0.0 1.0
  outer loop
    vertex -80.0 80.0 80.0
    vertex 0.0 0.0 80.0
    vertex 0.0 80.0 80.0
  endloop
endfacet
facet normal 1.0 9.399888275159654e-17 -2.563605893225361e-17
  outer loop
    vertex 0.0 19.999999999999975 59.99999999999999
    vertex 0.0 0.0 80.0
    vertex 0.0 -2.255973186038318e-14 59.99999999999999
  endloop
endfacet
facet normal 1.0 9.399888275159654e-17 -2.563605893225361e-17
  outer loop
    vertex 0.0 0.0 80.0
    vertex 0.0 19.999999999999975 59.99999999999999
    vertex 0.0 80.0 80.0
  endloop
endfacet
facet normal 1.0 9.399888275159654e-17 -2.563605893225361e-17
  outer loop
    vertex 0.0 80.0 80.0
    vertex 0.0 19.999999999999975 59.99999999999999
    vertex -1.6919798895287383e-14 59.99999999999999 60.0
  endloop
endfacet
facet normal 1.0 9.399888275159654e-17 -2.563605893225361e-17
  outer loop
    vertex -1.6919798895287383e-14 59.99999999999999 60.0
    vertex 0.0 19.999999999999975 59.99999999999999
    vertex -1.6919798895287383e-14 59.99999999999999 19.999999999999996
  endloop
endfacet
facet normal 1.0 9.399888275159654e-17 -2.563605893225361e-17
  outer loop
    vertex 0.0 80.0 80.0
    vertex -1.6919798895287383e-14 59.99999999999999 60.0
    vertex -1.6919798895287383e-14 79.99999999999999 60.0
  endloop
endfacet
facet normal 1.0 9.399888275159654e-17 -2.563605893225361e-17
  outer loop
    vertex 0.0 0.0 0.0
    vertex 0.0 19.999999999999975 19.99999999999999
    vertex -1.127986593019159e-14 -2.255973186038318e-14 19.999999999999993
  endloop
endfacet
facet normal 1.0 9.399888275159654e-17 -2.563605893225361e-17
  outer loop
    vertex 0.0 19.999999999999975 19.99999999999999
    vertex 0.0 0.0 0.0
    vertex 0.0 80.0 0.0
  endloop
endfacet
facet normal 1.0 9.399888275159654e-17 -2.563605893225361e-17
  outer loop
    vertex 0.0 19.999999999999975 19.99999999999999
    vertex 0.0 80.0 0.0
    vertex 0.0 19.999999999999975 59.99999999999999
  endloop
endfacet
facet normal 1.0 9.399888275159654e-17 -2.563605893225361e-17
  outer loop
    vertex 0.0 19.999999999999975 59.99999999999999
    vertex 0.0 80.0 0.0
    vertex -1.6919798895287383e-14 59.99999999999999 19.999999999999996
  endloop
endfacet
facet normal 1.0 9.399888275159654e-17 -2.563605893225361e-17
  outer loop
    vertex -1.6919798895287383e-14 59.99999999999999 19.999999999999996
    vertex 0.0 80.0 0.0
    vertex -1.6919798895287383e-14 79.99999999999999 19.999999999999996
  endloop
endfacet
facet normal -1.4099832412739486e-16 -1.0 -5.639932965095795e-16
  outer loop
    vertex -1.127986593019159e-14 -2.255973186038318e-14 19.999999999999993
    vertex -80.0 0.0 0.0
    vertex 0.0 0.0 0.0
  endloop
endfacet
facet normal -1.4099832412739486e-16 -1.0 -5.639932965095795e-16
  outer loop
    vertex -80.0 0.0 0.0
    vertex -1.127986593019159e-14 -2.255973186038318e-14 19.999999999999993
    vertex -80.0 0.0 20.0
  endloop
endfacet
facet normal 7.049916206369744e-17 1.0 -2.8199664825478977e-16
  outer loop
    vertex -80.0 80.0 80.0
    vertex -1.6919798895287383e-14 79.99999999999999 60.0
    vertex -79.99999999999999 80.0 60.0
  endloop
endfacet
facet normal 7.049916206369744e-17 1.0 -2.8199664825478977e-16
  outer loop
    vertex -1.6919798895287383e-14 79.99999999999999 60.0
    vertex -80.0 80.0 80.0
    vertex 0.0 80.0 80.0
  endloop
endfacet
facet normal -1.0 1.5666480458599452e-17 4.6999441375798294e-17
  outer loop
    vertex -79.99999999999999 19.999999999999996 19.999999999999996
    vertex -80.0 0.0 0.0
    vertex -80.0 0.0 20.0
  endloop
endfacet
facet normal -1.0 1.5666480458599452e-17 4.6999441375798294e-17
  outer loop
    vertex -80.0 0.0 0.0
    vertex -79.99999999999999 19.999999999999996 19.999999999999996
    vertex -80.0 80.0 0.0
  endloop
endfacet
facet normal -1.0 1.5666480458599452e-17 4.6999441375798294e-17
  outer loop
    vertex -80.0 80.0 0.0
    vertex -79.99999999999999 19.999999999999996 19.999999999999996
    vertex -80.0 60.0 19.999999999999996
  endloop
endfacet
facet normal -1.0 1.5666480458599452e-17 4.6999441375798294e-17
  outer loop
    vertex -80.0 60.0 19.999999999999996
    vertex -79.99999999999999 19.999999999999996 19.999999999999996
    vertex -79.99999999999999 60.0 60.0
  endloop
endfacet
facet normal -1.0 1.5666480458599452e-17 4.6999441375798294e-17
  outer loop
    vertex -80.0 80.0 0.0
    vertex -80.0 60.0 19.999999999999996
    vertex -79.99999999999999 80.0 19.999999999999996
  endloop
endfacet
facet normal -1.0 1.5666480458599452e-17 4.6999441375798294e-17
  outer loop
    vertex -80.0 80.0 80.0
    vertex -79.99999999999999 0.0 60.0
    vertex -80.0 0.0 80.0
  endloop
endfacet
facet normal -1.0 1.5666480458599452e-17 4.6999441375798294e-17
  outer loop
    vertex -79.99999999999999 0.0 60.0
    vertex -80.0 80.0 80.0
    vertex -79.99999999999999 19.999999999999996 60.0
  endloop
endfacet
facet normal -1.0 1.5666480458599452e-17 4.6999441375798294e-17
  outer loop
    vertex -79.99999999999999 19.999999999999996 60.0
    vertex -80.0 80.0 80.0
    vertex -79.99999999999999 19.999999999999996 19.999999999999996
  endloop
endfacet
facet normal -1.0 1.5666480458599452e-17 4.6999441375798294e-17
  outer loop
    vertex -79.99999999999999 19.999999999999996 19.999999999999996
    vertex -80.0 80.0 80.0
    vertex -79.99999999999999 60.0 60.0
  endloop
endfacet
facet normal -1.0 1.5666480458599452e-17 4.6999441375798294e-17
  outer loop
    vertex -79.99999999999999 60.0 60.0
    vertex -80.0 80.0 80.0
    vertex -79.99999999999999 80.0 60.0
  endloop
endfacet
facet normal -0.0 -0.0 1.0
  outer loop
    vertex -1.6919798895287383e-14 59.99999999999999 19.999999999999996
    vertex -79.99999999999999 80.0 19.999999999999996
    vertex -80.0 60.0 19.999999999999996
  endloop
endfacet
facet normal -0.0 -0.0 1.0
  outer loop
    vertex -79.99999999999999 80.0 19.999999999999996
    vertex -1.6919798895287383e-14 59.99999999999999 19.999999999999996
    vertex -1.6919798895287383e-14 79.99999999999999 19.999999999999996
  endloop
endfacet
facet normal 2.8199664825478977e-16 1.0 -7.952210962693561e-32
  outer loop
    vertex -79.99999999999999 60.0 60.0
    vertex -1.6919798895287383e-14 59.99999999999999 19.999999999999996
    vertex -80.0 60.0 19.999999999999996
  endloop
endfacet
facet normal 2.8199664825478977e-16 1.0 -7.952210962693561e-32
  outer loop
    vertex -1.6919798895287383e-14 59.99999999999999 19.999999999999996
    vertex -79.99999999999999 60.0 60.0
    vertex -1.6919798895287383e-14 59.99999999999999 60.0
  endloop
endfacet
facet normal 0.0 0.0 -1.0
  outer loop
    vertex -1.6919798895287383e-14 79.99999999999999 60.0
    vertex -79.99999999999999 60.0 60.0
    vertex -79.99999999999999 80.0 60.0
  endloop
endfacet
facet normal 0.0 0.0 -1.0
  outer loop
    vertex -79.99999999999999 60.0 60.0
    vertex -1.6919798895287383e-14 79.99999999999999 60.0
    vertex -1.6919798895287383e-14 59.99999999999999 60.0
  endloop
endfacet
facet normal 7.049916206369743e-17 1.0 2.8199664825478977e-16
  outer loop
    vertex -79.99999999999999 80.0 19.999999999999996
    vertex 0.0 80.0 0.0
    vertex -80.0 80.0 0.0
  endloop
endfacet
facet normal 7.049916206369743e-17 1.0 2.8199664825478977e-16
  outer loop
    vertex 0.0 80.0 0.0
    vertex -79.99999999999999 80.0 19.999999999999996
    vertex -1.6919798895287383e-14 79.99999999999999 19.999999999999996
  endloop
endfacet
facet normal -1.4099832412739488e-16 3.02184016582355e-32 -1.0
  outer loop
    vertex 0.0 19.999999999999975 59.99999999999999
    vertex -79.99999999999999 0.0 60.0
    vertex -79.99999999999999 19.999999999999996 60.0
  endloop
endfacet
facet normal -1.4099832412739488e-16 3.02184016582355e-32 -1.0
  outer loop
    vertex -79.99999999999999 0.0 60.0
    vertex 0.0 19.999999999999975 59.99999999999999
    vertex 0.0 -2.255973186038318e-14 59.99999999999999
  endloop
endfacet
facet normal -2.8199664825478977e-16 -1.0 -0.0
  outer loop
    vertex 0.0 19.999999999999975 59.99999999999999
    vertex -79.99999999999999 19.999999999999996 19.999999999999996
    vertex 0.0 19.999999999999975 19.99999999999999
  endloop
endfacet
facet normal -2.8199664825478977e-16 -1.0 -0.0
  outer loop
    vertex -79.99999999999999 19.999999999999996 19.999999999999996
    vertex 0.0 19.999999999999975 59.99999999999999
    vertex -79.99999999999999 19.999999999999996 60.0
  endloop
endfacet
facet normal 1.0574874309554621e-16 1.409983241273948e-16 1.0
  outer loop
    vertex -1.127986593019159e-14 -2.255973186038318e-14 19.999999999999993
    vertex -79.99999999999999 19.999999999999996 19.999999999999996
    vertex -80.0 0.0 20.0
  endloop
endfacet
facet normal 1.0574874309554621e-16 1.409983241273948e-16 1.0
  outer loop
    vertex -79.99999999999999 19.999999999999996 19.999999999999996
    vertex -1.127986593019159e-14 -2.255973186038318e-14 19.999999999999993
    vertex 0.0 19.999999999999975 19.99999999999999
  endloop
endfacet
facet normal -1.409983241273948e-16 -1.0 5.639932965095795e-16
  outer loop
    vertex 0.0 0.0 80.0
    vertex -79.99999999999999 0.0 60.0
    vertex 0.0 -2.255973186038318e-14 59.99999999999999
  endloop
endfacet
facet normal -1.409983241273948e-16 -1.0 5.639932965095795e-16
  outer loop
    vertex -79.99999999999999 0.0 60.0
    vertex 0.0 0.0 80.0
    vertex -80.0 0.0 80.0
  endloop
endfacet
endsolid Untitled-5b144553
